<svg xmlns="http://www.w3.org/2000/svg" width="100" height="100" viewBox="0 0 100 100" fill="none">
  <path d="M21.7609 90.9016L15.4773 20.4242H84.5226L78.2328 90.8906L49.9578 98.7289L21.7609 90.9016Z" fill="#E44D26"/>
  <path d="M50 92.7375L72.8469 86.4031L78.2227 26.1875H50V92.7375Z" fill="#F16529"/>
  <path d="M49.9999 52.3266H38.5616L37.7726 43.4742H49.9999V34.8305H28.3257L28.5319 37.15L30.6569 60.9695H49.9999V52.3266ZM49.9999 74.7742L49.9616 74.7844L40.3358 72.1844L39.7202 65.2914H31.0429L32.2538 78.8633L49.9601 83.7789L49.9999 83.7672V74.7742Z" fill="#EBEBEB"/>
  <path d="M21.9016 1.2711H26.2938V5.61172H30.3125V1.2711H34.7055V14.4133H30.3125V10.0125H26.2946V14.4133H21.9016V1.2711ZM40.4813 5.62969H36.6141V1.2711H48.743V5.62969H44.8743V14.4133H40.4813V5.62969ZM50.668 1.2711H55.2477L58.0657 5.88906L60.8805 1.2711H65.4625V14.4133H61.0868V7.89922L58.0657 12.5719H57.9891L54.9657 7.89922V14.4133H50.6672V1.2711H50.668ZM67.6493 1.2711H72.043V10.0695H78.2204V14.4141H67.6493V1.2711Z" fill="black"/>
  <path d="M49.9702 52.3266V60.9695H60.614L59.6108 72.1797L49.9702 74.782V83.7742L67.6905 78.8633L67.8202 77.4023L69.8515 54.6469L70.0624 52.3266H67.7327H49.9702ZM49.9702 34.8305V43.4742H70.8491L71.0218 41.5312L71.4163 37.15L71.6233 34.8305H49.9702Z" fill="white"/>
</svg>