<svg xmlns="http://www.w3.org/2000/svg" width="100" height="100" viewBox="0 0 100 100" fill="none">
  <path d="M89.3165 63.0852C89.0899 63.0852 88.8649 63.0258 88.6665 62.9102L86.5962 61.6852C86.2868 61.5125 86.4376 61.4508 86.5399 61.4156C86.9524 61.2719 87.036 61.2383 87.4759 60.9898C87.522 60.9641 87.5821 60.9734 87.6298 61.0016L89.2196 61.9461C89.2774 61.9781 89.3595 61.9781 89.4118 61.9461L95.6126 58.3672C95.6712 58.3344 95.7079 58.268 95.7079 58.1992V51.043C95.7079 50.9727 95.6712 50.9078 95.6118 50.8719L89.4134 47.2961C89.3556 47.2633 89.2798 47.2633 89.222 47.2961L83.0243 50.8727C82.9649 50.9078 82.9267 50.975 82.9267 51.043V58.1992C82.9267 58.268 82.9649 58.3328 83.0243 58.3648L84.7228 59.3469C85.6446 59.807 86.2095 59.2648 86.2095 58.7195V51.6531C86.2095 51.5539 86.2899 51.475 86.3892 51.475H87.1759C87.2735 51.475 87.3548 51.5539 87.3548 51.6531V58.7195C87.3548 59.9492 86.6853 60.6547 85.5188 60.6547C85.1603 60.6547 84.8782 60.6547 84.0907 60.2672L82.4649 59.3313C82.0626 59.0984 81.8149 58.6641 81.8149 58.2V51.0437C81.8149 50.5789 82.0626 50.1453 82.4649 49.9141L88.6657 46.3305C89.0579 46.1094 89.579 46.1094 89.9681 46.3305L96.1688 49.9141C96.5704 50.1461 96.8196 50.5797 96.8196 51.0437V58.2C96.8196 58.6648 96.5704 59.0969 96.1688 59.3313L89.9681 62.9109C89.7712 63.0258 89.547 63.0852 89.3165 63.0852ZM91.2329 58.1547C88.5181 58.1547 87.9501 56.9086 87.9501 55.8641C87.9501 55.7656 88.0306 55.6852 88.1298 55.6852H88.9313C89.0212 55.6852 89.0954 55.7492 89.1095 55.8367C89.2298 56.6531 89.5915 57.0648 91.2329 57.0648C92.5384 57.0648 93.0946 56.7695 93.0946 56.0758C93.0946 55.6758 92.9368 55.3797 90.9071 55.1805C89.2103 55.0125 88.161 54.6383 88.161 53.2797C88.161 52.0289 89.2157 51.282 90.9829 51.282C92.9696 51.282 93.9524 51.9719 94.0767 53.4516C94.0813 53.5016 94.0634 53.5508 94.0298 53.5891C93.9954 53.6242 93.9485 53.6461 93.8985 53.6461H93.0931C93.0095 53.6461 92.936 53.5875 92.9188 53.5062C92.7251 52.6469 92.2563 52.3727 90.9821 52.3727C89.5563 52.3727 89.3907 52.8703 89.3907 53.2414C89.3907 53.6922 89.586 53.8234 91.5118 54.0781C93.4173 54.3305 94.3228 54.6867 94.3228 56.0266C94.3235 57.3805 93.197 58.1547 91.2329 58.1547Z" fill="#83CD29"/>
  <path d="M76.5484 53.4609C76.793 53.318 76.9437 53.057 76.9437 52.7734V50.9344C76.9437 50.6516 76.7937 50.3906 76.5484 50.2477L70.0141 46.4539C69.768 46.3109 69.4648 46.3102 69.218 46.4523L62.643 50.2484C62.3977 50.3906 62.2461 50.6523 62.2461 50.9359V58.5266C62.2461 58.8117 62.3992 59.0758 62.6477 59.2172L69.1812 62.9398C69.4219 63.0781 69.7172 63.0789 69.9602 62.9445L73.9117 60.7477C74.0375 60.6773 74.1156 60.5461 74.1164 60.4039C74.1172 60.2602 74.0406 60.1273 73.9164 60.0563L67.3008 56.2594C67.1766 56.1883 67.1008 56.057 67.1008 55.9156V53.5359C67.1008 53.3938 67.1766 53.2633 67.2992 53.193L69.3594 52.0055C69.4812 51.9344 69.6328 51.9344 69.7555 52.0055L71.8156 53.193C71.9391 53.2641 72.0148 53.3945 72.0148 53.5359V55.4078C72.0148 55.5508 72.0906 55.682 72.2133 55.7523C72.3367 55.8234 72.4883 55.8234 72.6117 55.7516L76.5484 53.4609Z" fill="#404137"/>
  <path d="M69.5187 53.1047C69.5663 53.0781 69.6241 53.0781 69.671 53.1047L70.9327 53.8336C70.9796 53.8609 71.0085 53.9117 71.0085 53.9656V55.4227C71.0085 55.4773 70.9796 55.5273 70.9327 55.5547L69.671 56.2828C69.6241 56.3102 69.5655 56.3102 69.5187 56.2828L68.2577 55.5547C68.2101 55.5273 68.1812 55.4773 68.1812 55.4227V53.9656C68.1812 53.9117 68.2101 53.8609 68.2577 53.8336L69.5187 53.1047Z" fill="#83CD29"/>
  <path d="M52.4086 56.1359C52.4086 56.2062 52.3711 56.2719 52.3094 56.3078L50.0516 57.6094C49.9898 57.6453 49.9141 57.6453 49.8531 57.6094L47.5953 56.3078C47.5336 56.2719 47.4961 56.2062 47.4961 56.1359V53.5281C47.4961 53.4578 47.5344 53.3914 47.5953 53.3555L49.8531 52.0523C49.9148 52.0156 49.9906 52.0156 50.0523 52.0523L52.3109 53.3555C52.3719 53.3914 52.4094 53.4578 52.4094 53.5281L52.4086 56.1359ZM53.0187 36.8266C52.8961 36.7586 52.7461 36.7602 52.6242 36.8313C52.5031 36.9031 52.4281 37.0328 52.4281 37.1734V47.2633C52.4281 47.3617 52.375 47.4539 52.2898 47.5039C52.2039 47.5531 52.0977 47.5531 52.0117 47.5039L50.3648 46.5547C50.1195 46.4133 49.8172 46.4133 49.5719 46.5547L42.9953 50.35C42.7492 50.4922 42.5977 50.7547 42.5977 51.0383V58.6312C42.5977 58.9148 42.7492 59.1766 42.9945 59.3195L49.5711 63.1172C49.8164 63.2594 50.1195 63.2594 50.3656 63.1172L56.9437 59.3195C57.1891 59.1766 57.3406 58.9148 57.3406 58.6312V39.7039C57.3406 39.4164 57.1844 39.1508 56.9336 39.0102L53.0187 36.8266Z" fill="#404137"/>
  <path d="M29.8734 46.4117C30.1187 46.2695 30.4219 46.2695 30.6672 46.4117L37.2438 50.2062C37.4891 50.3484 37.6406 50.6109 37.6406 50.8945V58.4898C37.6406 58.7734 37.4891 59.0359 37.2438 59.1781L30.668 62.9758C30.4227 63.1172 30.1195 63.1172 29.8734 62.9758L23.2992 59.1781C23.0539 59.0359 22.9023 58.7734 22.9023 58.4898V50.8937C22.9023 50.6109 23.0539 50.3484 23.2992 50.2062L29.8734 46.4117Z" fill="#83CD29"/>
  <path d="M17.914 50.8313C17.914 50.5453 17.764 50.2828 17.5171 50.1414L10.9429 46.3578C10.8304 46.2922 10.7062 46.2586 10.5804 46.2539H10.5124C10.3874 46.2586 10.2624 46.2922 10.1499 46.3578L3.5749 50.1414C3.33037 50.2828 3.17725 50.5453 3.17725 50.8313L3.19131 61.0187C3.19131 61.1609 3.26553 61.293 3.38975 61.3617C3.51162 61.4352 3.6624 61.4352 3.78428 61.3617L7.69053 59.1242C7.9374 58.9773 8.08818 58.7187 8.08818 58.4352V53.6758C8.08818 53.3914 8.23818 53.1297 8.48428 52.9875L10.1483 52.0297C10.2718 51.957 10.4077 51.9227 10.5452 51.9227C10.6812 51.9227 10.8202 51.957 10.9413 52.0297L12.6038 52.9875C12.8499 53.1297 13.0015 53.3914 13.0015 53.6758V58.4352C13.0015 58.7187 13.1538 58.9789 13.3991 59.1242L17.3054 61.3617C17.428 61.4352 17.5812 61.4352 17.7022 61.3617C17.8233 61.2922 17.8991 61.1602 17.8991 61.0187L17.914 50.8313Z" fill="#404137"/>
</svg>