<svg xmlns="http://www.w3.org/2000/svg" width="100" height="100" viewBox="0 0 100 100" fill="none">
  <path d="M24.8883 72.8131C24.8883 69.6326 23.9812 67.9998 22.1672 67.9107C21.4453 67.8756 20.7406 67.9912 20.0555 68.2568C19.5078 68.4529 19.1398 68.6467 18.9461 68.8428V76.435C20.1063 77.1631 21.1367 77.5006 22.0352 77.4482C23.9359 77.3217 24.8883 75.7787 24.8883 72.8131ZM27.125 72.9451C27.125 74.5607 26.7469 75.9021 25.9844 76.9686C25.1352 78.1764 23.9578 78.7967 22.4523 78.8318C21.3172 78.8686 20.1484 78.5123 18.9461 77.767V84.6678L17 83.9732V68.6561C17.3195 68.2654 17.7305 67.9287 18.2281 67.6436C19.3859 66.9686 20.7938 66.6217 22.45 66.6045L22.4781 66.6318C23.9922 66.6131 25.1586 67.2342 25.9773 68.4951C26.7422 69.6514 27.125 71.1334 27.125 72.9451Z" fill="white"/>
  <path d="M39.018 77.4732C39.018 79.6396 38.8008 81.1404 38.3665 81.9756C37.9297 82.81 37.0993 83.4764 35.8735 83.9732C34.8797 84.3647 33.804 84.5771 32.65 84.6131L32.3282 83.3873C33.5008 83.2279 34.3274 83.0678 34.8063 82.9084C35.7493 82.5896 36.3969 82.0998 36.7524 81.4436C37.0375 80.9092 37.1782 79.8904 37.1782 78.3803V77.874C35.8477 78.4779 34.4532 78.7787 32.9954 78.7787C32.0368 78.7787 31.1915 78.4779 30.4641 77.874C29.6469 77.2162 29.2375 76.3811 29.2375 75.3701V67.2709L31.1836 66.6045V74.7568C31.1836 75.6271 31.4641 76.2982 32.0266 76.7678C32.5891 77.2389 33.3165 77.4646 34.2086 77.4475C35.1008 77.4287 36.0563 77.0826 37.0719 76.4084V66.8982H39.018V77.4732Z" fill="white"/>
  <path d="M46.6142 78.7249C46.3821 78.7436 46.1696 78.7522 45.9735 78.7522C44.8728 78.7522 44.0149 78.4913 43.4017 77.9647C42.7899 77.4381 42.4837 76.7124 42.4837 75.7866V68.1217H41.1509V66.8983H42.4837V63.6475L44.4274 62.9553V66.8983H46.6134V68.1217H44.4274V75.7334C44.4274 76.4639 44.6228 76.9811 45.0149 77.2819C45.3509 77.5319 45.886 77.6741 46.6134 77.7108L46.6142 78.7249Z" fill="white"/>
  <path d="M58.3954 78.5656H56.4501V71.0547C56.4501 70.2906 56.2712 69.6328 55.9157 69.0828C55.5048 68.4617 54.9345 68.1508 54.2017 68.1508C53.3095 68.1508 52.1938 68.6219 50.8548 69.5633V78.5664H48.9087V60.6133L50.8548 60V68.1773C52.0978 67.2727 53.4563 66.8195 54.9313 66.8195C55.9618 66.8195 56.7962 67.1664 57.4352 67.8586C58.0759 68.5508 58.3954 69.4125 58.3954 70.443V78.5656Z" fill="white"/>
  <path d="M68.7383 72.507C68.7383 71.2844 68.5063 70.2758 68.0446 69.4766C67.4946 68.5039 66.6415 67.9906 65.4875 67.9375C63.354 68.0602 62.2891 69.5891 62.2891 72.5188C62.2891 73.8625 62.511 74.9836 62.9579 75.8844C63.5282 77.0328 64.3844 77.5977 65.5258 77.5789C67.6672 77.5633 68.7383 75.8727 68.7383 72.507ZM70.8696 72.5195C70.8696 74.2594 70.4243 75.7062 69.536 76.8633C68.5594 78.157 67.2094 78.8062 65.4868 78.8062C63.779 78.8062 62.4485 78.157 61.4883 76.8633C60.618 75.707 60.1829 74.2594 60.1829 72.5195C60.1829 70.8844 60.654 69.5094 61.5954 68.3891C62.5891 67.2008 63.8961 66.6055 65.5125 66.6055C67.1282 66.6055 68.4438 67.2016 69.4571 68.3891C70.3985 69.5094 70.8696 70.8844 70.8696 72.5195Z" fill="white"/>
  <path d="M82.025 78.5656H80.079V70.6289C80.079 69.7586 79.8172 69.0789 79.293 68.5898C78.7696 68.1016 78.0711 67.8648 77.2 67.8844C76.2758 67.9016 75.3969 68.2047 74.5625 68.7898V78.5664H72.6165V68.5492C73.736 67.7336 74.7665 67.2008 75.7079 66.9523C76.5954 66.7203 77.379 66.6055 78.054 66.6055C78.5157 66.6055 78.95 66.6508 79.3586 66.7398C80.1235 66.9164 80.7446 67.2445 81.2235 67.725C81.7579 68.2578 82.0243 68.8969 82.0243 69.6437L82.025 78.5656Z" fill="white"/>
  <path d="M49.9646 7.00026C48.1458 7.01019 46.4108 7.16482 44.8814 7.43579C40.3814 8.23167 39.5642 9.89579 39.5642 12.963V17.0162H50.1987V18.3667H35.5735C32.4822 18.3667 29.7767 20.2252 28.9298 23.7577C27.9537 27.8095 27.9097 30.339 28.9298 34.5667C29.6859 37.7147 31.4905 39.9591 34.5818 39.9591H38.2378V35.1015C38.2378 31.5903 41.2752 28.4947 44.8814 28.4947H55.5045C58.4611 28.4947 60.8218 26.0588 60.8218 23.091V12.963C60.8218 10.0816 58.3901 7.91531 55.5045 7.43579C53.6773 7.13219 51.7819 6.99316 49.9646 7.00026ZM44.2132 10.2618C45.3113 10.2618 46.2093 11.174 46.2093 12.2948C46.2093 13.4113 45.3127 14.3164 44.2132 14.3164C43.1109 14.3164 42.2186 13.4113 42.2186 12.2948C42.2172 11.174 43.1109 10.2618 44.2132 10.2618Z" fill="url(#paint0_linear_51_961)"/>
  <path d="M62.1483 18.3681V23.0909C62.1483 26.7511 59.0443 29.8325 55.5047 29.8325H44.8816C41.9718 29.8325 39.5643 32.3237 39.5643 35.2376V45.3656C39.5643 48.2455 42.0711 49.9437 44.8816 50.7694C48.2481 51.7596 51.4756 51.9384 55.5047 50.7694C58.1817 49.9948 60.8219 48.4342 60.8219 45.3656V41.3124H50.1988V39.9619H66.1391C69.2304 39.9619 70.3824 37.8055 71.4577 34.5694C72.5672 31.2384 72.5203 28.035 71.4577 23.7605C70.6931 20.6848 69.2347 18.3695 66.1391 18.3695L62.1483 18.3681ZM56.1729 44.0136C57.2752 44.0136 58.1689 44.9159 58.1689 46.0338C58.1689 47.1546 57.2766 48.0654 56.1729 48.0654C55.0748 48.0654 54.1782 47.1546 54.1782 46.0338C54.1782 44.9159 55.0748 44.0136 56.1729 44.0136Z" fill="url(#paint1_linear_51_961)"/>
  <path opacity="0.444" d="M64.5713 57.6512C64.5713 59.1763 58.1901 60.4148 50.3206 60.4148C42.4498 60.4148 36.0685 59.1763 36.0685 57.6512C36.0685 56.1247 42.4498 54.8876 50.3206 54.8876C58.1915 54.8876 64.5713 56.1247 64.5713 57.6512Z" fill="url(#paint2_radial_51_961)"/>
  <defs>
    <linearGradient id="paint0_linear_51_961" x1="27.1398" y1="8.2682" x2="51.6677" y2="29.1854" gradientUnits="userSpaceOnUse">
      <stop stop-color="#5A9FD4"/>
      <stop offset="1" stop-color="#306998"/>
    </linearGradient>
    <linearGradient id="paint1_linear_51_961" x1="60.8954" y1="42.1896" x2="52.0993" y2="29.8542" gradientUnits="userSpaceOnUse">
      <stop stop-color="#FFD43B"/>
      <stop offset="1" stop-color="#FFE873"/>
    </linearGradient>
    <radialGradient id="paint2_radial_51_961" cx="0" cy="0" r="1" gradientUnits="userSpaceOnUse" gradientTransform="translate(50.1741 57.4572) rotate(-90) scale(2.76439 12.1518)">
      <stop stop-color="#B8B8B8" stop-opacity="0.498"/>
      <stop offset="1" stop-color="#7F7F7F" stop-opacity="0"/>
    </radialGradient>
  </defs>
</svg>